<svg width="512" height="512" viewBox="0 0 512 512" fill="none" xmlns="http://www.w3.org/2000/svg">
<path d="M421.499 256H93.6141C84.0602 256 76.1959 247.788 76.1959 238.449C76.1959 236.892 76.4826 235.131 76.8 233.718L94.249 111.872C95.7338 103.957 102.861 102.4 111.391 102.4H403.773C412.242 102.4 419.43 103.823 420.895 111.708L438.344 235.776C438.61 237.22 438.958 238.07 438.958 239.626C438.948 248.965 431.043 256 421.499 256V256ZM408.381 392.653C389.919 392.653 374.948 378.122 374.948 360.008C374.948 342.016 389.919 327.506 408.381 327.506C426.721 327.506 441.723 342.016 441.723 360.008C441.723 378.122 426.721 392.653 408.381 392.653ZM106.291 392.653C87.9616 392.653 72.9805 378.122 72.9805 360.008C72.9805 342.016 87.9616 327.506 106.291 327.506C124.805 327.506 139.756 342.016 139.756 360.008C139.756 378.122 124.805 392.653 106.291 392.653ZM163.84 30.72H368.64V61.44H163.84C143.36 61.44 143.36 30.72 163.84 30.72ZM452.628 77.7216C446.648 48.9165 429.179 37.3146 400.681 25.7229C372.234 14.1722 306.309 0.327698 256.727 0.327698C206.93 0.327698 140.667 14.1824 112.189 25.7229C83.7018 37.3248 66.5191 48.9165 60.5901 77.7216L40.96 238.07V460.8H71.68V481.28C71.68 522.24 122.88 522.24 122.88 481.28V460.8H378.88V481.28C378.88 522.24 440.32 522.24 440.32 481.28V460.8H471.04V238.07L452.628 77.7216Z" fill="black"/>
</svg>
