<svg width="512" height="512" viewBox="0 0 512 512" fill="none" xmlns="http://www.w3.org/2000/svg">
<path d="M379.211 115.499H72.32C58.8884 115.499 48 126.387 48 139.819V372.192C48 385.624 58.8884 396.512 72.32 396.512H379.211C392.642 396.512 403.531 385.624 403.531 372.192V139.819C403.531 126.387 392.642 115.499 379.211 115.499Z" stroke="black" stroke-width="10.6667" stroke-linecap="round" stroke-linejoin="round"/>
<path d="M405.76 323.243L444.672 345.707C446.631 346.838 448.853 347.433 451.114 347.433C453.376 347.433 455.598 346.838 457.557 345.707C459.515 344.576 461.142 342.95 462.273 340.991C463.404 339.033 464 336.811 464 334.549V177.451C464 175.189 463.404 172.967 462.273 171.009C461.142 169.05 459.515 167.424 457.557 166.293C455.598 165.162 453.376 164.567 451.114 164.567C448.853 164.567 446.631 165.162 444.672 166.293L403.541 190.037" stroke="black" stroke-width="10.6667" stroke-linecap="round" stroke-linejoin="round"/>
<path d="M309.557 184.96H141.984C126.314 184.96 113.611 197.661 113.611 213.328C113.611 228.995 126.314 241.696 141.984 241.696H309.557C325.228 241.696 337.931 228.995 337.931 213.328C337.931 197.661 325.228 184.96 309.557 184.96Z" stroke="black" stroke-width="10.6667" stroke-linecap="round" stroke-linejoin="round"/>
</svg>
