<svg width="512" height="512" viewBox="0 0 512 512" fill="none" xmlns="http://www.w3.org/2000/svg">
<path d="M256 469.333C249.956 469.333 244.892 467.285 240.811 463.189C236.715 459.108 234.667 454.044 234.667 448V380.267L180.267 434.667C176 438.933 171.022 441.067 165.333 441.067C159.644 441.067 154.667 438.933 150.4 434.667C146.133 430.4 144 425.337 144 419.477C144 413.604 146.133 408.533 150.4 404.267L234.667 320V277.333H192L107.733 361.6C103.467 365.867 98.4035 368 92.544 368C86.6702 368 81.6 365.867 77.3333 361.6C73.0666 357.333 70.9333 352.356 70.9333 346.667C70.9333 340.978 73.0666 336 77.3333 331.733L131.733 277.333H64C57.9555 277.333 52.8924 275.285 48.8106 271.189C44.7146 267.108 42.6666 262.044 42.6666 256C42.6666 249.956 44.7146 244.885 48.8106 240.789C52.8924 236.708 57.9555 234.667 64 234.667H131.733L77.3333 180.267C73.0666 176 70.9333 171.022 70.9333 165.333C70.9333 159.644 73.0666 154.667 77.3333 150.4C81.6 146.133 86.6702 144 92.544 144C98.4035 144 103.467 146.133 107.733 150.4L192 234.667H234.667V192L150.4 107.733C146.133 103.467 144 98.3964 144 92.5227C144 86.6631 146.133 81.6 150.4 77.3333C154.667 73.0667 159.644 70.9333 165.333 70.9333C171.022 70.9333 176 73.0667 180.267 77.3333L234.667 131.733V64C234.667 57.9555 236.715 52.8853 240.811 48.7893C244.892 44.7075 249.956 42.6667 256 42.6667C262.044 42.6667 267.115 44.7075 271.211 48.7893C275.292 52.8853 277.333 57.9555 277.333 64V131.733L331.733 77.3333C336 73.0667 340.978 70.9333 346.667 70.9333C352.356 70.9333 357.333 73.0667 361.6 77.3333C365.867 81.6 368 86.6631 368 92.5227C368 98.3964 365.867 103.467 361.6 107.733L277.333 192V234.667H320L404.267 150.4C408.533 146.133 413.604 144 419.477 144C425.337 144 430.4 146.133 434.667 150.4C438.933 154.667 441.067 159.644 441.067 165.333C441.067 171.022 438.933 176 434.667 180.267L380.267 234.667H448C454.044 234.667 459.108 236.708 463.189 240.789C467.285 244.885 469.333 249.956 469.333 256C469.333 262.044 467.285 267.108 463.189 271.189C459.108 275.285 454.044 277.333 448 277.333H380.267L434.667 331.733C438.933 336 441.067 340.978 441.067 346.667C441.067 352.356 438.933 357.333 434.667 361.6C430.4 365.867 425.337 368 419.477 368C413.604 368 408.533 365.867 404.267 361.6L320 277.333H277.333V320L361.6 404.267C365.867 408.533 368 413.604 368 419.477C368 425.337 365.867 430.4 361.6 434.667C357.333 438.933 352.356 441.067 346.667 441.067C340.978 441.067 336 438.933 331.733 434.667L277.333 380.267V448C277.333 454.044 275.292 459.108 271.211 463.189C267.115 467.285 262.044 469.333 256 469.333Z" fill="black"/>
</svg>
