<svg width="512" height="512" viewBox="0 0 512 512" fill="none" xmlns="http://www.w3.org/2000/svg">
<path d="M368 448C346.79 447.975 326.457 439.538 311.46 424.54C296.462 409.543 288.025 389.21 288 368H320C320 377.494 322.815 386.774 328.089 394.667C333.364 402.561 340.86 408.713 349.631 412.346C358.402 415.979 368.053 416.93 377.364 415.078C386.675 413.226 395.228 408.654 401.941 401.941C408.654 395.228 413.226 386.675 415.078 377.364C416.93 368.053 415.979 358.402 412.346 349.631C408.713 340.86 402.561 333.364 394.667 328.089C386.774 322.815 377.494 320 368 320H352V288H368C389.217 288 409.566 296.429 424.569 311.431C439.571 326.434 448 346.783 448 368C448 389.217 439.571 409.566 424.569 424.569C409.566 439.571 389.217 448 368 448V448ZM256 288H320V320H256V288ZM160 288H224V320H160V288ZM64 288H128V320H64V288ZM336 240H320V208H336C345.494 208 354.774 205.185 362.667 199.911C370.561 194.636 376.713 187.14 380.346 178.369C383.979 169.598 384.93 159.947 383.078 150.636C381.226 141.325 376.654 132.772 369.941 126.059C363.228 119.346 354.675 114.774 345.364 112.922C336.053 111.07 326.402 112.021 317.631 115.654C308.86 119.287 301.364 125.439 296.089 133.333C290.815 141.226 288 150.507 288 160H256C256 144.178 260.692 128.71 269.482 115.554C278.273 102.398 290.767 92.1447 305.385 86.0896C320.003 80.0346 336.089 78.4504 351.607 81.5372C367.126 84.624 381.38 92.2433 392.569 103.431C403.757 114.62 411.376 128.874 414.463 144.393C417.55 159.911 415.965 175.997 409.91 190.615C403.855 205.233 393.602 217.727 380.446 226.518C367.29 235.308 351.823 240 336 240V240ZM224 208H288V240H224V208ZM128 208H192V240H128V208Z" fill="black"/>
</svg>
