<svg width="512" height="512" viewBox="0 0 512 512" fill="none" xmlns="http://www.w3.org/2000/svg">
<path d="M256 64C167.808 64 96 135.808 96 224C96 312.192 167.808 384 256 384C344.192 384 416 312.192 416 224C416 135.808 344.192 64 256 64ZM256 96C288.386 95.9585 319.576 108.23 343.251 130.327C366.926 152.425 381.316 182.696 383.504 215.008C373.958 208.309 363.017 203.862 351.504 202C344.563 200.846 337.53 200.343 330.496 200.496C320.177 200.641 309.922 202.152 300 204.992C295.577 194.838 287.797 186.515 277.965 181.417C268.133 176.318 256.847 174.756 246 176.992C245.872 176.88 245.632 177.12 245.504 176.992C235.12 168.32 224.064 154.88 219.008 141.504C215.632 132.56 214.88 124.32 216.496 117.504C218.064 110.816 221.504 104.496 230.496 98.496C238.896 96.8366 247.438 96.0006 256 96V96ZM184 118.496C183.063 130.063 184.775 141.691 189.008 152.496C195.221 168.753 204.946 183.438 217.488 195.504C210.77 204.541 207.441 215.65 208.081 226.892C208.722 238.133 213.292 248.793 220.992 257.008C218.432 269.744 212.368 285.248 203.504 296C197.376 303.44 190.32 308.432 183.504 310.496C176.688 312.576 169.632 312.688 159.504 307.504C140.064 285.056 128 256.128 128 224C128 179.936 150.32 141.504 184 118.496ZM256 208C265.008 208 272 215.008 272 224C272 233.008 264.992 240 256 240C246.992 240 240 232.992 240 224C240 214.992 247.008 208 256 208ZM331.008 233.008C336.128 232.816 341.312 233.184 346 234C355.376 235.632 363.248 239.056 368.496 244C373.44 248.688 376.688 254.688 377.504 265.008C368.902 290.399 352.549 312.451 330.752 328.058C308.954 343.664 282.809 352.038 256 352C235.68 352 216.496 347.36 199.504 338.992C210.944 334 220.432 325.68 228 316.496C238.764 303.294 246.606 287.96 251.008 271.504C252.688 271.68 254.256 272 256 272C277.008 272 294.56 257.936 301.008 238.992C310.625 235.411 320.753 233.391 331.008 233.008V233.008ZM240 400V416H144V448H368V416H272V400H240Z" fill="black"/>
</svg>
