<svg width="512" height="512" viewBox="0 0 512 512" fill="none" xmlns="http://www.w3.org/2000/svg">
<path d="M256 469.333C214.4 469.333 179.115 454.841 150.144 425.856C121.159 396.885 106.667 361.6 106.667 320C106.667 296.533 110.756 275.285 118.933 256.256C127.111 237.241 142.933 215.644 166.4 191.467C190.222 166.933 204.174 145.152 208.256 126.123C212.352 107.108 214.044 79.2889 213.333 42.6667C269.156 75.0222 315.108 115.911 351.189 165.333C387.285 214.756 405.333 266.311 405.333 320C405.333 361.6 390.841 396.885 361.856 425.856C332.885 454.841 297.6 469.333 256 469.333ZM256 426.667C263.467 426.667 270.756 423.73 277.867 417.856C284.978 411.996 288.533 402.667 288.533 389.867C288.533 381.333 286.137 371.378 281.344 360C276.537 348.622 268.089 334.933 256 318.933C244.622 333.867 236.537 347.2 231.744 358.933C226.937 370.667 224.533 380.978 224.533 389.867C224.533 402.311 227.911 411.556 234.667 417.6C241.422 423.644 248.533 426.667 256 426.667ZM181.867 396.8C180.089 374.756 185.6 352.356 198.4 329.6C211.2 306.844 225.244 287.289 240.533 270.933C242.667 268.444 245.07 266.667 247.744 265.6C250.404 264.533 253.156 264 256 264C258.844 264 261.604 264.533 264.277 265.6C266.937 266.667 269.333 268.444 271.467 270.933C273.6 273.067 277.959 277.952 284.544 285.589C291.115 293.241 297.87 302.663 304.811 313.856C311.737 325.063 317.867 337.692 323.2 351.744C328.533 365.781 331.022 380.622 330.667 396.267C340.622 386.667 348.444 375.289 354.133 362.133C359.822 348.978 362.667 334.933 362.667 320C362.667 298.311 359.289 277.867 352.533 258.667C345.778 239.467 337.067 221.511 326.4 204.8C315.733 188.089 304 172.885 291.2 159.189C278.4 145.508 265.778 133.511 253.333 123.2C248.711 146.667 240.626 166.308 229.077 182.123C217.515 197.952 206.044 211.911 194.667 224C176.533 242.489 164.444 258.667 158.4 272.533C152.356 286.4 149.333 302.222 149.333 320C149.333 334.933 152.178 348.978 157.867 362.133C163.556 375.289 171.556 386.844 181.867 396.8Z" fill="black"/>
</svg>
