<svg width="512" height="512" viewBox="0 0 512 512" fill="none" xmlns="http://www.w3.org/2000/svg">
<path d="M170.667 320H341.333M213.333 469.333H298.667H213.333ZM106.667 192C106.667 152.394 122.4 114.411 150.405 86.4054C178.411 58.3999 216.394 42.6667 256 42.6667C295.606 42.6667 333.589 58.3999 361.595 86.4054C389.6 114.411 405.333 152.394 405.333 192C405.347 216.044 399.532 239.733 388.386 261.038C377.239 282.343 361.094 300.627 341.333 314.325L329.771 369.067C328.24 379.157 323.143 388.364 315.405 395.018C307.667 401.672 297.8 405.331 287.595 405.333H224.405C214.2 405.331 204.333 401.672 196.595 395.018C188.857 388.364 183.76 379.157 182.229 369.067L170.667 314.56C150.899 300.813 134.754 282.486 123.609 261.143C112.464 239.801 106.651 216.077 106.667 192V192Z" stroke="black" stroke-width="42.6667" stroke-linecap="round" stroke-linejoin="round"/>
</svg>
