<svg width="512" height="512" viewBox="0 0 512 512" fill="none" xmlns="http://www.w3.org/2000/svg">
<path d="M240 32H272V112H240V32ZM347.008 142.4L403.104 86.304L425.728 108.928L369.632 165.024L347.008 142.4ZM400 240H480V272H400V240ZM347.008 369.6L369.632 346.992L425.728 403.088L403.104 425.712L347.008 369.6ZM240 400H272V480H240V400ZM86.304 403.072L142.4 346.976L165.024 369.6L108.944 425.696L86.304 403.072ZM32 240H112V272H32V240ZM86.32 108.928L108.944 86.304L165.04 142.4L142.4 165.024L86.32 108.928ZM256 192C268.658 192 281.032 195.754 291.556 202.786C302.081 209.818 310.284 219.814 315.128 231.508C319.972 243.203 321.24 256.071 318.77 268.486C316.301 280.901 310.205 292.304 301.255 301.255C292.304 310.205 280.901 316.301 268.486 318.77C256.071 321.24 243.203 319.972 231.508 315.128C219.814 310.284 209.818 302.081 202.786 291.556C195.754 281.032 192 268.658 192 256C192.021 239.033 198.771 222.766 210.769 210.769C222.766 198.771 239.033 192.021 256 192M256 160C237.013 160 218.452 165.63 202.665 176.179C186.878 186.728 174.574 201.721 167.308 219.262C160.042 236.804 158.14 256.106 161.845 274.729C165.549 293.351 174.692 310.456 188.118 323.882C201.544 337.308 218.649 346.451 237.271 350.155C255.894 353.86 275.196 351.958 292.738 344.692C310.279 337.426 325.272 325.122 335.821 309.335C346.37 293.548 352 274.987 352 256C352 230.539 341.886 206.121 323.882 188.118C305.879 170.114 281.461 160 256 160Z" fill="black"/>
</svg>
