<svg width="473" height="512" viewBox="0 0 473 512" fill="none" xmlns="http://www.w3.org/2000/svg">
<g clip-path="url(#clip0_207_13)">
<path d="M472.618 275.692C472.618 307.692 466.361 338.256 453.848 367.385C441.336 396.513 424.515 421.641 403.387 442.769C382.259 463.897 357.13 480.718 328.002 493.231C298.874 505.744 268.31 512 236.31 512C204.31 512 173.746 505.744 144.618 493.231C115.489 480.718 90.3612 463.897 69.233 442.769C48.1048 421.641 31.2843 396.513 18.7714 367.385C6.25861 338.256 0.00219727 307.692 0.00219727 275.692C0.00219727 238.359 8.25861 203.179 24.7714 170.154C41.2843 137.128 64.515 109.436 94.4637 87.0769C103.284 80.5128 113.079 77.9487 123.848 79.3846C134.618 80.8205 143.182 85.9487 149.541 94.7692C156.105 103.385 158.618 113.077 157.079 123.846C155.541 134.615 150.464 143.282 141.848 149.846C121.746 165.026 106.207 183.59 95.233 205.538C84.2586 227.487 78.7714 250.872 78.7714 275.692C78.7714 297.026 82.9253 317.385 91.233 336.769C99.5407 356.154 110.771 372.923 124.925 387.077C139.079 401.231 155.848 412.462 175.233 420.769C194.618 429.077 214.977 433.231 236.31 433.231C257.643 433.231 278.002 429.077 297.387 420.769C316.771 412.462 333.541 401.231 347.695 387.077C361.848 372.923 373.079 356.154 381.387 336.769C389.695 317.385 393.848 297.026 393.848 275.692C393.848 250.872 388.361 227.487 377.387 205.538C366.412 183.59 350.874 165.026 330.771 149.846C322.156 143.282 317.079 134.615 315.541 123.846C314.002 113.077 316.515 103.385 323.079 94.7692C329.438 85.9487 338.053 80.8205 348.925 79.3846C359.797 77.9487 369.541 80.5128 378.156 87.0769C408.105 109.436 431.336 137.128 447.848 170.154C464.361 203.179 472.618 238.359 472.618 275.692ZM275.695 39.3846V236.308C275.695 246.974 271.797 256.205 264.002 264C256.207 271.795 246.977 275.692 236.31 275.692C225.643 275.692 216.412 271.795 208.618 264C200.823 256.205 196.925 246.974 196.925 236.308V39.3846C196.925 28.7179 200.823 19.4872 208.618 11.6923C216.412 3.89742 225.643 -1.52588e-05 236.31 -1.52588e-05C246.977 -1.52588e-05 256.207 3.89742 264.002 11.6923C271.797 19.4872 275.695 28.7179 275.695 39.3846Z" fill="black"/>
</g>
<defs>
<clipPath id="clip0_207_13">
<rect width="472.62" height="512" fill="white"/>
</clipPath>
</defs>
</svg>
