<svg width="512" height="512" viewBox="0 0 512 512" fill="none" xmlns="http://www.w3.org/2000/svg">
<path d="M128.107 190.293L158.293 160.171L229.461 231.339L353.941 106.837L384.128 137.024L229.461 291.648L128.107 190.293Z" fill="black"/>
<path d="M448 42.6667H64C52.6945 42.7004 41.8616 47.2065 33.8674 55.2007C25.8731 63.195 21.3671 74.0278 21.3333 85.3333L21.4186 341.419C21.4412 352.705 25.9347 363.523 33.9153 371.503C41.896 379.484 52.7136 383.977 64 384H213.333V426.667L170.752 426.752L170.667 469.333H341.333L341.419 426.752L298.667 426.667V384H448C459.306 383.966 470.138 379.46 478.133 371.466C486.127 363.472 490.633 352.639 490.667 341.333V85.3333C490.633 74.0278 486.127 63.195 478.133 55.2007C470.138 47.2065 459.306 42.7004 448 42.6667ZM448 341.333H64V85.3333H448V341.333Z" fill="black"/>
</svg>
