<svg width="512" height="512" viewBox="0 0 512 512" fill="none" xmlns="http://www.w3.org/2000/svg">
<g clip-path="url(#clip0_398_8)">
<path d="M155.077 -1.79073e-06C149.971 0.677328 145.333 3.32833 142.159 7.38461L75.067 91.6874L30.7593 62.1489C28.577 60.6833 26.1266 59.663 23.549 59.1466C20.9713 58.6302 18.3171 58.6279 15.7386 59.1398C13.16 59.6517 10.7079 60.6677 8.52299 62.1295C6.33806 63.5914 4.46329 65.4703 3.00625 67.6584C1.54922 69.8466 0.538602 72.3009 0.0323884 74.8805C-0.473825 77.4602 -0.465671 80.1144 0.0563849 82.6909C0.57844 85.2674 1.60412 87.7155 3.07457 89.8947C4.54502 92.0738 6.4313 93.9411 8.62518 95.3895L67.7021 134.774C71.8427 137.531 76.8732 138.619 81.7828 137.819C86.6924 137.019 91.1174 134.39 94.1686 130.462L172.938 32C175.445 28.9421 176.973 25.2004 177.323 21.262C177.674 17.3235 176.831 13.3707 174.904 9.91811C172.977 6.46548 170.055 3.67294 166.519 1.90398C162.982 0.135016 158.995 -0.528429 155.077 -1.79073e-06V-1.79073e-06ZM236.308 59.0769V98.4615H512V59.0769H236.308ZM155.077 177.231C149.971 177.908 145.333 180.559 142.159 184.615L75.067 268.918L30.7593 239.38C26.3514 236.442 20.9569 235.376 15.7626 236.415C10.5684 237.455 5.99988 240.515 3.0621 244.923C0.124319 249.331 -0.942077 254.726 0.0975094 259.92C1.1371 265.114 4.19751 269.683 8.60549 272.62L67.6824 312.005C71.823 314.762 76.8535 315.85 81.7631 315.049C86.6727 314.249 91.0977 311.621 94.1489 307.692L172.918 209.231C175.423 206.174 176.95 202.435 177.301 198.498C177.652 194.562 176.811 190.612 174.886 187.16C172.962 183.708 170.043 180.916 166.511 179.145C162.978 177.374 158.994 176.707 155.077 177.231V177.231ZM236.308 236.308V275.692H512V236.308H236.308ZM155.077 354.462C149.971 355.139 145.333 357.79 142.159 361.846L75.067 446.149L30.7593 416.61C28.5767 415.156 26.129 414.145 23.5558 413.637C20.9827 413.128 18.3346 413.131 15.7626 413.646C10.5684 414.686 5.99988 417.746 3.0621 422.154C0.124319 426.562 -0.942077 431.956 0.0975094 437.151C1.1371 442.345 4.19751 446.913 8.60549 449.851L67.6824 489.236C71.823 491.993 76.8535 493.08 81.7631 492.28C86.6727 491.48 91.0977 488.852 94.1489 484.923L172.918 386.462C175.423 383.405 176.95 379.665 177.301 375.729C177.652 371.793 176.811 367.842 174.886 364.391C172.962 360.939 170.043 358.146 166.511 356.376C162.978 354.605 158.994 353.938 155.077 354.462ZM236.308 413.538V452.923H512V413.538H236.308Z" fill="black"/>
</g>
<defs>
<clipPath id="clip0_398_8">
<rect width="512" height="512" fill="white"/>
</clipPath>
</defs>
</svg>
