<svg width="512" height="512" viewBox="0 0 512 512" fill="none" xmlns="http://www.w3.org/2000/svg">
<path d="M456 151.15L392 188V112C392 94.35 377.65 80 360 80H64C46.35 80 32 94.35 32 112V400C32 417.65 46.35 432 64 432H360C377.65 432 392 417.65 392 400V324L456 360.85C466.65 367 480 359.3 480 347.05V165C480 152.7 466.65 145 456 151.15ZM164 176C164 178.2 162.2 180 160 180H104C101.8 180 100 178.2 100 176V152C100 149.8 101.8 148 104 148H160C162.2 148 164 149.8 164 152V176ZM444 312.5L392 282.6V229.45L444 199.5V312.5Z" fill="black"/>
</svg>
