<svg width="512" height="512" viewBox="0 0 512 512" fill="none" xmlns="http://www.w3.org/2000/svg">
<path d="M280 312.128V138.016H216V312.096C193.552 323.744 178.016 346.976 178.016 374.016C178.292 392.4 185.788 409.938 198.885 422.842C211.983 435.745 229.63 442.98 248.016 442.982C266.402 442.984 284.051 435.754 297.152 422.853C310.252 409.952 317.752 392.416 318.032 374.032C318.032 346.992 302.512 323.76 280.016 312.144L280 312.128ZM328 83.968C328 39.872 292.096 3.96799 248 3.96799C203.904 3.96799 168 39.888 168 83.968V287.6C156.013 298.573 146.444 311.923 139.902 326.798C133.359 341.674 129.987 357.749 130 374C130 439.056 182.96 492.032 248.016 492.032C313.072 492.032 366.016 439.072 366.016 374C366.016 340.624 351.968 309.52 328.016 287.568V84L328 83.968ZM334 374.048C333.97 396.843 324.899 418.695 308.776 434.809C292.652 450.924 270.795 459.983 248 460C225.209 459.97 203.36 450.904 187.244 434.788C171.129 418.672 162.062 396.823 162.032 374.032C162.032 345.312 176.368 318.944 200.048 303.024V84C200.048 57.552 221.536 36 248 36C274.464 36 296 57.536 296 84V303.04C307.689 310.83 317.274 321.386 323.903 333.771C330.532 346.155 334 359.985 334 374.032V374.048ZM353.36 138.016L425.36 179.584V96.48L353.36 138.016V138.016Z" fill="black"/>
</svg>
