<svg width="512" height="512" viewBox="0 0 512 512" fill="none" xmlns="http://www.w3.org/2000/svg">
<path d="M277.333 426.667C282.991 426.667 288.418 428.914 292.418 432.915C296.419 436.916 298.667 442.342 298.667 448C298.667 453.658 296.419 459.084 292.418 463.085C288.418 467.086 282.991 469.333 277.333 469.333C271.675 469.333 266.249 467.086 262.248 463.085C258.248 459.084 256 453.658 256 448C256 442.342 258.248 436.916 262.248 432.915C266.249 428.914 271.675 426.667 277.333 426.667V426.667ZM202.667 405.333C208.325 405.333 213.751 407.581 217.752 411.582C221.752 415.582 224 421.009 224 426.667C224 432.325 221.752 437.751 217.752 441.752C213.751 445.752 208.325 448 202.667 448C197.009 448 191.583 445.752 187.582 441.752C183.581 437.751 181.333 432.325 181.333 426.667C181.333 421.009 183.581 415.582 187.582 411.582C191.583 407.581 197.009 405.333 202.667 405.333V405.333ZM352 405.333C357.658 405.333 363.084 407.581 367.085 411.582C371.086 415.582 373.333 421.009 373.333 426.667C373.333 432.325 371.086 437.751 367.085 441.752C363.084 445.752 357.658 448 352 448C346.342 448 340.916 445.752 336.915 441.752C332.914 437.751 330.667 432.325 330.667 426.667C330.667 421.009 332.914 415.582 336.915 411.582C340.916 407.581 346.342 405.333 352 405.333ZM277.376 128.192C344.96 128.192 383.317 172.928 388.885 226.965H390.592C400.923 226.951 411.156 228.973 420.705 232.914C430.255 236.855 438.935 242.639 446.249 249.935C453.563 257.231 459.368 265.897 463.333 275.437C467.297 284.977 469.344 295.205 469.355 305.536C469.341 315.865 467.292 326.091 463.327 335.628C459.361 345.166 453.555 353.829 446.242 361.123C438.928 368.417 430.249 374.199 420.701 378.139C411.152 382.079 400.921 384.099 390.592 384.085H164.139C153.809 384.099 143.579 382.079 134.03 378.139C124.482 374.199 115.803 368.417 108.489 361.123C101.175 353.829 95.37 345.166 91.4042 335.628C87.4384 326.091 85.39 315.865 85.376 305.536C85.3872 295.205 87.4335 284.977 91.3981 275.437C95.3626 265.897 101.168 257.231 108.482 249.935C115.796 242.639 124.476 236.855 134.025 232.914C143.575 228.973 153.808 226.951 164.139 226.965H165.845C171.456 172.565 209.792 128.192 277.376 128.192V128.192ZM277.376 160.128C233.173 160.128 194.667 194.987 194.667 243.115C194.667 250.731 187.861 256.725 180.075 256.725H165.355C138.432 256.725 116.629 278.059 116.629 304.427C116.629 330.773 138.432 352.128 165.333 352.128H389.397C416.299 352.128 438.101 330.795 438.101 304.427C438.101 278.08 416.299 256.725 389.397 256.725H374.677C366.869 256.725 360.064 250.752 360.064 243.115C360.064 194.368 321.557 160.128 277.376 160.128V160.128ZM93.1627 216.832C94.6462 220.405 94.785 224.394 93.5535 228.061C92.3219 231.729 89.8033 234.825 86.464 236.779L84.5014 237.739L64.7467 245.931C61.0058 247.455 56.8266 247.509 53.048 246.08C49.2695 244.651 46.1713 241.845 44.3755 238.227C42.5797 234.608 42.2192 230.444 43.3663 226.571C44.5134 222.697 47.0833 219.401 50.56 217.344L52.5014 216.363L72.2561 208.171C74.1975 207.366 76.2783 206.952 78.3798 206.952C80.4812 206.952 82.562 207.366 84.5035 208.171C86.4449 208.975 88.2088 210.154 89.6946 211.64C91.1804 213.126 92.3589 214.89 93.1627 216.832V216.832ZM231.552 113.728L227.904 114.965C216.809 118.854 206.322 124.299 196.757 131.136C186.486 127.8 175.431 127.738 165.123 130.959C154.815 134.181 145.763 140.526 139.219 149.118C132.676 157.709 128.964 168.122 128.597 178.916C128.231 189.709 131.228 200.35 137.173 209.365C126.769 212.284 116.916 216.897 108.011 223.019C98.233 206.213 94.5807 186.538 97.6754 167.343C100.77 148.147 110.421 130.617 124.984 117.736C139.548 104.855 158.126 97.4176 177.556 96.6907C196.985 95.9639 216.066 101.992 231.552 113.749V113.728ZM62.7414 114.389L64.9814 115.136L84.736 123.328C88.4409 124.89 91.4219 127.789 93.0861 131.449C94.7502 135.109 94.9754 139.261 93.7169 143.08C92.4584 146.898 89.8085 150.103 86.2943 152.056C82.7802 154.01 78.6594 154.568 74.752 153.621L72.4907 152.896L52.736 144.704C49.0214 143.147 46.0307 140.246 44.361 136.581C42.6914 132.915 42.4656 128.755 43.7288 124.93C44.992 121.105 47.6512 117.898 51.1756 115.948C54.6999 113.998 58.83 113.449 62.7414 114.411V114.389ZM144.128 50.688L145.088 52.6293L153.28 72.384C154.827 76.1282 154.896 80.3198 153.473 84.1129C152.05 87.906 149.241 91.0181 145.614 92.8212C141.986 94.6243 137.809 94.9841 133.926 93.8279C130.044 92.6718 126.744 90.0859 124.693 86.592L123.712 84.6293L115.52 64.8746C113.995 61.1337 113.942 56.9545 115.371 53.176C116.8 49.3974 119.605 46.2992 123.224 44.5034C126.843 42.7076 131.007 42.3471 134.88 43.4942C138.753 44.6414 142.05 47.2113 144.107 50.688H144.128ZM236.992 43.8826C240.534 45.3527 243.43 48.0461 245.153 51.4723C246.876 54.8984 247.311 58.8294 246.379 62.5493L245.653 64.7893L237.461 84.544C235.9 88.2488 233 91.2299 229.34 92.894C225.68 94.5581 221.528 94.7834 217.71 93.5249C213.891 92.2664 210.686 89.6164 208.733 86.1023C206.78 82.5881 206.221 78.4674 207.168 74.56L207.915 72.2987L216.085 52.544C216.889 50.6024 218.068 48.8381 219.553 47.352C221.039 45.8659 222.803 44.6871 224.745 43.8828C226.686 43.0785 228.767 42.6645 230.868 42.6645C232.97 42.6644 235.051 43.0784 236.992 43.8826V43.8826Z" fill="black"/>
</svg>
